# xmcd CD database file
#
# Track frame offsets:
#	150
#	15619
#	27628
#	39876
#	64400
#	82412
#	95508
#	105893
#	126650
#	141824
#	160055
#	167908
#	181253
#	203770
#
# Disc length: 2863 seconds
#
# Revision: 0
# Processed by: cddbd v1.5.2PL0 Copyright (c) Steve Scherf et al.
# Submitted via: CDex 1.70beta2
#
DISCID=c00b2d0e
DTITLE=Diknu Schneeberger Trio - Rubina
DYEAR=2006
DGENRE=Jazz
TTITLE0=Made in france
TTITLE1=Some of these days
TTITLE2=Rhytme futur
TTITLE3=Autum leaves
TTITLE4=Caravan
TTITLE5=Rubina
TTITLE6=Hungaria
TTITLE7=Sandys bolero
TTITLE8=Rose room
TTITLE9=Moonflower
TTITLE10=Valse a rosenthal
TTITLE11=Les Yeux Noirs
TTITLE12=For Josepha
TTITLE13=Sweet Georgia Brown
EXTD=YEAR: 2006
EXTT0=
EXTT1=
EXTT2=
EXTT3=
EXTT4=
EXTT5=
EXTT6=
EXTT7=
EXTT8=
EXTT9=
EXTT10=
EXTT11=
EXTT12=
EXTT13=
PLAYORDER=
